<svg t="1765356616455" class="icon" viewBox="0 0 1024 1024" version="1.1" xmlns="http://www.w3.org/2000/svg" p-id="4601" width="200" height="200"><path d="M768 938.666667h-512c-72.533333 0-128-55.466667-128-128v-597.333334c0-72.533333 55.466667-128 128-128h332.8v85.333334h-332.8c-25.6 0-42.666667 17.066667-42.666667 42.666666v597.333334c0 25.6 17.066667 42.666667 42.666667 42.666666h512c25.6 0 42.666667-17.066667 42.666667-42.666666v-256h85.333333v256c0 68.266667-55.466667 128-128 128z" p-id="4602"></path><path d="M375.466667 695.466667l21.333333-179.2 285.866667-285.866667 149.333333 149.333333-285.866667 285.866667-170.666666 29.866667zM870.4 345.6l-149.333333-149.333333 136.533333-136.533334 149.333333 149.333334-136.533333 136.533333z" p-id="4603"></path></svg>