<svg t="1757411370324" class="icon" viewBox="0 0 1024 1024" version="1.1" xmlns="http://www.w3.org/2000/svg" p-id="5714" width="200" height="200"><path d="M640 224A138.666667 138.666667 0 0 0 778.666667 85.333333h64A138.666667 138.666667 0 0 0 981.333333 224v64A138.666667 138.666667 0 0 0 842.666667 426.666667h-64A138.666667 138.666667 0 0 0 640 288v-64zM170.666667 298.666667a85.333333 85.333333 0 0 1 85.333333-85.333334h298.666667V128H256a170.666667 170.666667 0 0 0-170.666667 170.666667v426.666666a170.666667 170.666667 0 0 0 170.666667 170.666667h512a170.666667 170.666667 0 0 0 170.666667-170.666667v-213.333333h-85.333334v213.333333a85.333333 85.333333 0 0 1-85.333333 85.333334H256a85.333333 85.333333 0 0 1-85.333333-85.333334V298.666667z" p-id="5715"></path></svg>